**ABCDEFGHIJKLMNOPQRSTUVWXYZabcdefghijklmnopqrstuvwxyz**************************
**PARASOLID !"#$%&'()*+,-./:;<=>?@[\]^_`{|}~0123456789**************************
**PART1;
MC=AMD64;
MC_MODEL=AMD64 Family 25 Model 80 Stepping 0, AuthenticAMD;
MC_ID=unknown;
OS=Windows_NT;
OS_RELEASE=unknown;
FRU=Parasolid Version 32.1, build 255,  1- 1-2021;
APPL=SOLIDWORKS 2021-2021085;
SITE=;
USER=unknown;
FORMAT=text;
GUISE=transmit;
KEY=makeProjectedPlanarWire;
FILE=makeProjectedPlanarWire.x_t;
DATE=Tue Oct 18 19:13:16 2022;
**PART2;
SCH=SCH_3201255_32001;
USFLD_SIZE=0;
**PART3;
**END_OF_HEADER*****************************************************************
T51 : TRANSMIT FILE created by modeller version 320125523 SCH_3201255_32001_1300
6229 0 12 34 CCCCCCI4 mesh1006 0 I8 polyline1008 0 CCCCCCCDI5 owner1040 0 CCCCCC
I13 boundary_mesh1006 0 I17 boundary_polyline1008 0 CCCA16 index_map_offset0 0 1
 dA9 index_map82 0 A17 node_id_index_map82 0 A20 schema_embedding_map82 0 A5 chi
ld12 0 A14 lowest_node_id0 0 1 dA16 mesh_offset_data206 0 Z1 34 2 3 0 0 0 0 0 0
 1e3 1e-8 0 4 0 1 0 3 1 5 6 7 8 0 0 9 10 11 0 0 0 0 0 0 0 81 255 2 2 14 12 1 0 0
 0 0 13 0 70 11 CI9 list_type0 0 1 uI10 notransmit0 0 1 lCCCDCCDI12 finger_index
0 0 1 dI12 finger_block1012 0 CZ3 0 4 T1 0 0 1 20 1 14 14 13 255 5 21 0 1 0 15 0
 0 9 15 50 255 6 3 0 15 0 0 0 +0 0 0 0 1 0 0 0 1 31 255 7 13 0 10 16 0 0 +0 0 0
 0 1 0 0 0 1 .0375 29 255 8 32 0 11 17 0 -.0215922326415817 0 -.0281784578987533
5 19 8 CCCCCCCA5 owner12 0 Z9 20 0 1 0 0 5 V0 16 255 10 11 0 ?18 0 19 7 0 0 1 18
 255 11 30 0 20 0 21 8 ?1 17 255 20 0 0 0 0 11 22 23 0 24 -18 21 27 0 22 11 25 1
7 ?1 17 22 0 26 27 24 21 20 23 0 28 +18 25 24 0 27 21 29 30 ?1 29 17 29 0 21 30
 8 -.0215922326415817 0 .02817845789875335 29 30 26 0 25 31 17 .0215922326415817
 0 .02817845789875335 29 31 23 0 29 0 30 .0215922326415817 0 -.02817845789875335
 18 29 22 0 32 25 0 31 ?1 17 32 0 26 24 27 29 33 34 0 35 +15 255 26 6 0 24 15 36
 17 24 0 26 22 32 11 35 19 0 0 +17 27 0 26 32 22 25 28 37 0 33 +17 33 0 0 0 0 25
 32 34 0 0 -16 34 25 0 ?32 37 0 16 19 37 1 17 35 0 0 0 0 29 24 19 0 0 -16 19 8 0
 ?24 10 23 16 23 34 1 16 23 31 0 ?22 19 37 16 37 19 1 31 16 10 0 19 0 7 0 +-1020
434721734134e-47 0 1025519176787316e-47 0 1 0 0 0 1 .0355 16 37 28 0 ?27 23 34 1
6 34 23 1 17 28 0 0 0 0 21 27 37 0 0 -14 255 15 1 0 ?0 0 26 5 6 -0 0 0 0 5 15 36
 7 0 38 15 0 17 38 0 36 38 38 0 18 10 0 0 -17 18 0 0 0 0 0 38 10 0 0 +74 4 CI16
 index_map_offset0 0 1 dCCZ20 14 1 0 0 2 0 0 0 0 0 0 0 0 0 0 0 0 0 0 0 0 0 0 0 8
0 255 2 12 39 40 8004 0 0 0 0 3 5 0 0 0 FFTFFFFFFFFFFF2 3 83 255 1 13 1 79 255 1
6 40 SDL/TYSA_DENSITY1 0 
